<?xml version="1.0" encoding="utf-8"?>
<!-- Svg Vector Icons : http://www.onlinewebfonts.com/icon -->
<!DOCTYPE svg PUBLIC "-//W3C//DTD SVG 1.1//EN" "http://www.w3.org/Graphics/SVG/1.1/DTD/svg11.dtd">
<svg version="1.1" xmlns="http://www.w3.org/2000/svg" xmlns:xlink="http://www.w3.org/1999/xlink" x="0px" y="0px" viewBox="0 0 1000 1000" enable-background="new 0 0 1000 1000" xml:space="preserve">
<metadata> Svg Vector Icons : http://www.onlinewebfonts.com/icon </metadata>
<g><g transform="translate(0.000000,511.000000) scale(0.100000,-0.100000)"><path d="M5110.6,4983.4c-95.7-33.2-181.7-115.3-228.6-214.9c-33.2-70.3-37.1-134.8-37.1-638.8c0-377-5.9-562.6-19.5-562.6c-11.7,0-105.5-9.8-211-19.5c-953.4-101.6-1842.2-533.3-2541.6-1232.7C1367.5,1609.5,937.8,718.7,840.1-240.5C724.8-1389.2,1152.6-2579,2002.5-3463.9c750.2-781.4,1674.2-1226.9,2721.3-1314.7c670.1-54.7,1392.9,89.9,2045.4,410.2c1219.1,599.8,2104,1748.5,2342.4,3041.7c66.4,355.6,85.9,724.8,46.9,857.6c-35.2,115.3-195.4,275.5-308.7,304.8c-211,56.6-425.9-25.4-533.3-199.3c-52.7-86-58.6-115.3-76.2-361.4c-44.9-713.1-220.8-1258.1-568.5-1773.8c-156.3-230.5-554.8-629.1-785.4-785.3c-1121.3-756-2651-756-3770.4,0c-255.9,173.9-633,556.8-806.8,820.5c-246.2,371.2-414.2,787.3-494.3,1236.6c-56.7,306.7-62.5,898.7-11.7,1180c128.9,705.2,408.3,1265.9,863.5,1727c545,554.8,1180,842,2066.9,939.7l111.4,11.7v-552.9c0-496.2,3.9-560.7,37.1-631c43-93.8,105.5-154.3,201.2-195.4c84-33.2,222.7-39.1,298.9-9.8c29.3,11.7,593.9,371.2,1256.2,801c920.1,595.8,1217.1,797.1,1252.3,849.8c95.7,142.6,70.3,388.8-52.7,502.1c-78.1,72.3-2385.3,1560.9-2465.4,1590.2C5284.5,5018.5,5206.3,5018.5,5110.6,4983.4z"/></g></g>
</svg>